<svg
        className='w-5 h-5'
        fill='currentColor'
        viewBox='0 0 20 20'
        aria-hidden='true'
      >
      <g id="a7769278-648c-4d42-a1f4-e12e9a74196b" data-name="Layer 2"><g id="e4e62d3a-f05b-4109-9e4f-298020ef7116" data-name="Layer 1"><path d="M9.69,8.14V11.4h5.5a5.2,5.2,0,0,1-5.5,4.1,6,6,0,1,1,0-12A5.51,5.51,0,0,1,13.56,5l2.63-2.49A9.44,9.44,0,0,0,9.69,0,9.59,9.59,0,0,0,0,9.5,9.59,9.59,0,0,0,9.69,19C15.29,19,19,15.15,19,9.72a8.93,8.93,0,0,0-.15-1.58Z" style="fill-rule:evenodd"/></g></g>
      </svg>