<svg xmlns="http://www.w3.org/2000/svg" viewBox="0 0 78.92 82.72"><g id="a9c63168-9ab0-4b9b-a56c-1e4d6750c425" data-name="Layer 2"><g id="a95167df-de9c-4896-87a2-9ad61d7b064c" data-name="Layer 1"><path d="M31.06,5.85H2.93A2.93,2.93,0,0,1,0,2.93H0A2.93,2.93,0,0,1,2.93,0H31.06A2.93,2.93,0,0,1,34,2.93h0A2.92,2.92,0,0,1,31.06,5.85Z" style="fill:#ef4444"/><path d="M48.35,5.85H40.92A2.93,2.93,0,0,1,38,2.93h0A2.93,2.93,0,0,1,40.92,0h7.43a2.93,2.93,0,0,1,2.92,2.93h0A2.92,2.92,0,0,1,48.35,5.85Z" style="fill:#f43f5e"/><path d="M76,5.85H58.21a2.92,2.92,0,0,1-2.92-2.92h0A2.93,2.93,0,0,1,58.21,0H76a2.93,2.93,0,0,1,2.93,2.93h0A2.93,2.93,0,0,1,76,5.85Z" style="fill:#f97316"/><path d="M11.82,19H2.93A2.93,2.93,0,0,1,0,16.1H0a2.93,2.93,0,0,1,2.93-2.93h8.89a2.93,2.93,0,0,1,2.92,2.93h0A2.93,2.93,0,0,1,11.82,19Z" style="fill:#f97316"/><path d="M52.58,19H21.68a2.93,2.93,0,0,1-2.93-2.93h0a2.93,2.93,0,0,1,2.93-2.93h30.9a2.93,2.93,0,0,1,2.93,2.93h0A2.93,2.93,0,0,1,52.58,19Z" style="fill:#f97316"/><path d="M76,19H62.45a2.93,2.93,0,0,1-2.93-2.93h0a2.93,2.93,0,0,1,2.93-2.93H76a2.93,2.93,0,0,1,2.93,2.93h0A2.93,2.93,0,0,1,76,19Z" style="fill:#1e293b"/><path d="M25.9,32.2H17.67a2.93,2.93,0,0,1-2.93-2.93h0a2.93,2.93,0,0,1,2.93-2.92H25.9a2.93,2.93,0,0,1,2.93,2.92h0A2.93,2.93,0,0,1,25.9,32.2Z" style="fill:#f43f5e"/><path d="M60.93,32.2H35.77a2.93,2.93,0,0,1-2.93-2.93h0a2.93,2.93,0,0,1,2.93-2.92H60.93a2.93,2.93,0,0,1,2.93,2.92h0A2.93,2.93,0,0,1,60.93,32.2Z" style="fill:#ef4444"/><path d="M76,32.2H70.8a2.93,2.93,0,0,1-2.93-2.93h0a2.93,2.93,0,0,1,2.93-2.92H76a2.93,2.93,0,0,1,2.93,2.92h0A2.93,2.93,0,0,1,76,32.2Z" style="fill:#f97316"/><path d="M20.7,58.55H2.93A2.93,2.93,0,0,1,0,55.62H0a2.93,2.93,0,0,1,2.93-2.93H20.7a2.93,2.93,0,0,1,2.93,2.93h0A2.93,2.93,0,0,1,20.7,58.55Z" style="fill:#1e293b"/><path d="M39.7,58.55H30.57a2.93,2.93,0,0,1-2.93-2.93h0a2.93,2.93,0,0,1,2.93-2.93H39.7a2.93,2.93,0,0,1,2.93,2.93h0A2.93,2.93,0,0,1,39.7,58.55Z" style="fill:#f97316"/><path d="M67.76,58.55H49.57a2.93,2.93,0,0,1-2.93-2.93h0a2.93,2.93,0,0,1,2.93-2.93H67.76a2.93,2.93,0,0,1,2.92,2.93h0A2.93,2.93,0,0,1,67.76,58.55Z" style="fill:#f43f5e"/><path d="M28.08,71.72H19.19a2.93,2.93,0,0,1-2.93-2.93h0a2.93,2.93,0,0,1,2.93-2.92h8.89A2.92,2.92,0,0,1,31,68.79h0A2.93,2.93,0,0,1,28.08,71.72Z" style="fill:#ef4444"/><path d="M48.35,71.72H37.94A2.93,2.93,0,0,1,35,68.79h0a2.93,2.93,0,0,1,2.93-2.92H48.35a2.92,2.92,0,0,1,2.92,2.92h0A2.93,2.93,0,0,1,48.35,71.72Z" style="fill:#f97316"/><path d="M76,71.72H58.21a2.93,2.93,0,0,1-2.92-2.93h0a2.92,2.92,0,0,1,2.92-2.92H76a2.93,2.93,0,0,1,2.93,2.92h0A2.93,2.93,0,0,1,76,71.72Z" style="fill:#1e293b"/><path d="M19,82.72H10.07A2.92,2.92,0,0,1,7.15,79.8h0a2.93,2.93,0,0,1,2.92-2.93H19a2.93,2.93,0,0,1,2.93,2.93h0A2.93,2.93,0,0,1,19,82.72Z" style="fill:#f43f5e"/><path d="M32.84,82.72h-4A2.93,2.93,0,0,1,25.9,79.8h0a2.93,2.93,0,0,1,2.93-2.93h4a2.93,2.93,0,0,1,2.93,2.93h0A2.93,2.93,0,0,1,32.84,82.72Z" style="fill:#f97316"/><path d="M60.93,82.72H42.7a2.92,2.92,0,0,1-2.92-2.92h0a2.93,2.93,0,0,1,2.92-2.93H60.93a2.93,2.93,0,0,1,2.93,2.93h0A2.93,2.93,0,0,1,60.93,82.72Z" style="fill:#ef4444"/></g></g></svg>