<svg xmlns="http://www.w3.org/2000/svg" xmlns:xlink="http://www.w3.org/1999/xlink" viewBox="0 0 804.2 611.73"><defs><linearGradient id="bae4eeef-4aaf-4910-95a7-24d6c50423ed" y1="305.87" x2="804.2" y2="305.87" gradientUnits="userSpaceOnUse"><stop offset="0" stop-color="#ff416c"/><stop offset="1" stop-color="#ff4b2b"/></linearGradient></defs><g id="b91f1cea-9034-4dbe-aec8-4c8ebbdf7f3e" data-name="Layer 2"><g id="e8ebcd02-09bb-43fc-8fd5-29c23d845cea" data-name="Layer 1"><path d="M590.47,233a27.68,27.68,0,1,0,0-55.36H531.85a27.68,27.68,0,1,0,0,55.36ZM46,332.46a27.68,27.68,0,0,0,27.68,27.68H544.16a27.68,27.68,0,1,0,0-55.36H73.64A27.68,27.68,0,0,0,46,332.46ZM51.19,55.15H145.7l38.5,122.46H147.27a27.68,27.68,0,1,0,0,55.36H449.38a27.68,27.68,0,1,0,0-55.36H242.14L192.38,19.36l0,0A27.59,27.59,0,0,0,166,0H51.19a27.58,27.58,0,0,0,0,55.15ZM788.36,73.24a27.37,27.37,0,0,0-13.43-2.59L413.65,71a27.58,27.58,0,1,0,0,55.16L733,125.84,586.31,436.67H168.78a27.68,27.68,0,0,0,0,55.36h435a27.7,27.7,0,0,0,25.8-17.62l172-364.4A27.63,27.63,0,0,0,788.36,73.24ZM86.3,436.67H27.68a27.68,27.68,0,0,0,0,55.36H86.3a27.68,27.68,0,1,0,0-55.36ZM483.79,521a45.38,45.38,0,1,0,45.38,45.38A45.38,45.38,0,0,0,483.79,521Zm-149.15,0A45.38,45.38,0,1,0,380,566.35,45.39,45.39,0,0,0,334.64,521Z" style="fill-rule:evenodd;fill:url(#bae4eeef-4aaf-4910-95a7-24d6c50423ed)"/></g></g></svg>